<?xml version="1.0" encoding="utf-8"?>
<svg width="126px" height="42px" viewBox="0 0 126 42" version="1.1" xmlns:xlink="http://www.w3.org/1999/xlink" xmlns="http://www.w3.org/2000/svg">
  <g id="Logo">
    <g id="Group-3">
      <path d="M18.5 37C28.7173 37 37 28.7173 37 18.5C37 8.28273 28.7173 0 18.5 0C8.28273 0 0 8.28273 0 18.5C0 28.7173 8.28273 37 18.5 37Z" transform="translate(0 2)" id="Oval" fill="#000000" fill-rule="evenodd" stroke="none" />
      <g id="v" fill="#FFFFFF" transform="translate(11 0)">
        <path d="M14.336 15.5Q14.84 15.5 14.84 15.892L14.84 15.976Q14.84 16.256 14.154 16.774Q13.468 17.292 13.272 17.824L9.1 28.324C8.96933 28.7347 8.69867 28.94 8.288 28.94L7.112 28.94C6.73867 28.94 6.45867 28.7347 6.272 28.324L1.288 17.824Q1.064 17.348 0.532 16.816Q0 16.284 0 15.976L0 15.892C0 15.6307 0.168 15.5 0.504 15.5L5.18 15.5Q5.656 15.5 5.656 15.92L5.656 16.004Q5.656 16.2 5.39 16.48Q5.124 16.76 4.97 17.026Q4.816 17.292 4.984 17.88L8.428 26.588L11.704 18.272Q11.928 17.432 11.704 17.11Q11.48 16.788 11.102 16.494Q10.724 16.2 10.724 16.004L10.724 15.92Q10.724 15.5 11.228 15.5L14.336 15.5Z" />
      </g>
    </g>
    <g id="Camp" transform="translate(46 1)">
      <path d="M3.885 28.015Q6.96 31.45 10.98 31.45Q14.61 31.45 16.815 29.38Q19.02 27.31 19.44 24.28Q19.5 23.86 19.26 23.635Q19.02 23.41 18.69 23.485Q18.36 23.56 18.15 23.86Q17.31 25.6 15.72 26.92Q14.13 28.24 11.91 28.24Q8.94 28.24 6.66 25.375Q4.38 22.51 4.38 18.16Q4.38 15.04 6.015 13.075Q7.65 11.11 9.96 11.11Q11.31 11.11 12.315 11.695Q13.32 12.28 13.905 13.135Q14.49 13.99 14.985 14.83Q15.48 15.67 16.08 16.255Q16.68 16.84 17.43 16.84Q18.24 16.84 18.69 16.39Q19.14 15.94 19.14 15.19Q19.14 13.21 16.65 11.395Q14.16 9.58 10.77 9.58Q6.39 9.58 3.6 12.58Q0.81 15.58 0.81 20.26Q0.81 24.58 3.885 28.015ZM77.415 18.445Q75.36 16.45 72.51 16.45Q71.01 16.45 69.84 17.05Q68.67 17.65 68.04 18.73L68.07 17.08Q68.07 16.6249 67.8608 16.4868Q67.6149 16.3245 67.08 16.6L64.32 17.95Q63.78 18.19 63.78 18.58L63.78 18.7Q63.78 19 64.425 19.48Q65.07 19.96 65.07 20.59L65.07 35.29Q65.07 35.95 64.5 36.475Q63.93 37 63.93 37.27L63.93 37.36Q63.93 37.81 64.59 37.81L69.15 37.81Q69.81 37.81 69.81 37.36L69.81 37.27Q69.81 37 69.195 36.475Q68.58 35.95 68.58 35.29L68.58 29.86Q70.11 31.45 72.54 31.45Q75.42 31.45 77.445 29.26Q79.47 27.07 79.47 23.71Q79.47 20.44 77.415 18.445ZM34.485 29.485Q34.2 29.11 34.14 28.45L33.54 22.69Q33.21 19.78 31.47 18.115Q29.73 16.45 26.91 16.45Q24.51 16.45 22.935 17.41Q21.36 18.37 21.36 19.81Q21.36 20.44 21.765 20.815Q22.17 21.19 22.83 21.19Q23.46 21.19 23.88 20.62Q24.3 20.05 24.525 19.375Q24.75 18.7 25.365 18.13Q25.98 17.56 26.91 17.56Q28.41 17.56 29.1 18.82Q29.79 20.08 30.06 22.84L30.12 23.44Q28.8 22.42 26.64 22.42Q24.27 22.42 22.71 23.605Q21.15 24.79 21.18 26.92Q21.18 29.08 22.725 30.265Q24.27 31.45 26.79 31.45Q29.76 31.45 30.96 29.53Q31.05 30.58 31.605 30.955Q32.16 31.33 33.36 31.33Q35.79 31.33 35.79 30.58Q35.79 30.34 35.565 30.19Q35.34 30.04 35.055 29.95Q34.77 29.86 34.485 29.485ZM61.35 28.63Q61.38 29.29 61.905 29.83Q62.43 30.37 62.43 30.64L62.43 30.76Q62.43 31.18 61.8 31.18L57.39 31.18Q56.9538 31.18 56.8196 30.9787Q56.76 30.8892 56.76 30.76L56.76 30.64Q56.76 30.37 57.3 29.845Q57.84 29.32 57.81 28.66L57.51 22.99Q57.39 20.29 56.595 19.09Q55.8 17.89 54.33 17.89Q53.1 17.89 52.245 18.895Q51.39 19.9 51.33 21.43Q51.45 22.03 51.45 22.87L51.45 28.66Q51.45 29.32 51.975 29.845Q52.5 30.37 52.5 30.64L52.5 30.76Q52.5 31.18 51.87 31.18L47.52 31.18Q46.86 31.18 46.86 30.76L46.86 30.64Q46.86 30.37 47.385 29.845Q47.91 29.32 47.91 28.66L47.91 22.66Q47.91 20.41 47.025 19.15Q46.14 17.89 44.76 17.89Q43.41 17.89 42.54 18.895Q41.67 19.9 41.61 21.46L41.64 28.66Q41.64 29.32 42.24 29.845Q42.84 30.37 42.84 30.64L42.84 30.76Q42.84 31.18 42.21 31.18L37.56 31.18Q36.9 31.18 36.9 30.76L36.9 30.64Q36.9 30.37 37.5 29.845Q38.1 29.32 38.1 28.66L38.1 20.62Q38.1 20.08 37.77 19.72Q37.44 19.36 37.11 19.12Q36.78 18.88 36.78 18.61L36.78 18.52Q36.78 18.22 37.32 17.98L40.38 16.57Q40.86 16.36 41.1 16.525Q41.34 16.69 41.34 17.11L41.34 18.88Q42 17.77 43.125 17.11Q44.25 16.45 45.63 16.45Q47.28 16.45 48.615 17.23Q49.95 18.01 50.7 19.42Q51.27 18.01 52.53 17.23Q53.79 16.45 55.38 16.45Q57.72 16.45 59.235 18.025Q60.75 19.6 60.99 23.08L61.35 28.63ZM74.925 28.87Q73.92 30.31 72.12 30.31Q70.74 30.31 69.66 29.005Q68.58 27.7 68.58 26.05L68.58 20.5Q68.73 19.24 69.615 18.415Q70.5 17.59 71.64 17.59Q73.56 17.59 74.745 19.585Q75.93 21.58 75.93 24.82Q75.93 27.43 74.925 28.87ZM29.775 29.41Q29.01 30.31 27.78 30.31Q26.43 30.31 25.575 29.2Q24.72 28.09 24.72 26.5Q24.72 25.15 25.5 24.355Q26.28 23.56 27.54 23.56Q28.74 23.56 29.52 24.31Q30.3 25.06 30.39 26.35L30.48 27.28Q30.54 28.51 29.775 29.41Z" />
    </g>
  </g>
</svg>