<svg width="37" height="39" viewBox="0 0 37 39" fill="none" xmlns="http://www.w3.org/2000/svg">
<circle cx="18.5" cy="20.5" r="18.5" fill="#FF1D61"/>
<path d="M25.336 14.56C25.672 14.56 25.84 14.6907 25.84 14.952V15.036C25.84 15.2227 25.6067 15.4933 25.14 15.848C24.692 16.184 24.4027 16.5293 24.272 16.884L20.1 27.384C19.9693 27.7947 19.6987 28 19.288 28H18.112C17.7387 28 17.4587 27.7947 17.272 27.384L12.288 16.884C12.1387 16.5667 11.8867 16.2307 11.532 15.876C11.1773 15.5213 11 15.2413 11 15.036V14.952C11 14.6907 11.168 14.56 11.504 14.56H16.18C16.4973 14.56 16.656 14.7 16.656 14.98V15.064C16.656 15.1947 16.5627 15.3533 16.376 15.54C16.208 15.7267 16.068 15.9133 15.956 16.1C15.8627 16.268 15.872 16.548 15.984 16.94L19.428 25.648L22.704 17.332C22.8533 16.772 22.8533 16.3893 22.704 16.184C22.5547 15.96 22.3493 15.7547 22.088 15.568C21.8453 15.3627 21.724 15.1947 21.724 15.064V14.98C21.724 14.7 21.892 14.56 22.228 14.56H25.336Z" fill="white"/>
</svg>
