<svg width="119" height="88" viewBox="0 0 119 88" fill="none" xmlns="http://www.w3.org/2000/svg">
<path d="M9 17V2H117V86H9V68" stroke="white" stroke-width="3"/>
<path d="M16.9478 38.16C17.3438 38.16 17.5418 38.314 17.5418 38.622V38.721C17.5418 38.941 17.2668 39.26 16.7168 39.678C16.1888 40.074 15.8478 40.481 15.6938 40.899L10.7768 53.274C10.6228 53.758 10.3038 54 9.81976 54H8.43376C7.99376 54 7.66376 53.758 7.44376 53.274L1.56976 40.899C1.39376 40.525 1.09676 40.129 0.678758 39.711C0.260758 39.293 0.0517578 38.963 0.0517578 38.721V38.622C0.0517578 38.314 0.249758 38.16 0.645758 38.16H6.15676C6.53076 38.16 6.71776 38.325 6.71776 38.655V38.754C6.71776 38.908 6.60776 39.095 6.38776 39.315C6.18976 39.535 6.02476 39.755 5.89276 39.975C5.78276 40.173 5.79376 40.503 5.92576 40.965L9.98476 51.228L13.8458 41.427C14.0218 40.767 14.0218 40.316 13.8458 40.074C13.6698 39.81 13.4278 39.568 13.1198 39.348C12.8338 39.106 12.6908 38.908 12.6908 38.754V38.655C12.6908 38.325 12.8888 38.16 13.2848 38.16H16.9478ZM29.5321 54.33C26.5841 54.33 23.9771 53.076 21.7111 50.568C19.4671 48.038 18.3451 45.189 18.3451 42.021C18.3451 38.589 19.3681 35.773 21.4141 33.573C23.4601 31.373 26.0891 30.273 29.3011 30.273C31.7871 30.273 33.9431 30.944 35.7691 32.286C37.5951 33.606 38.5081 34.992 38.5081 36.444C38.5081 36.994 38.3431 37.434 38.0131 37.764C37.6831 38.094 37.2211 38.259 36.6271 38.259C36.0771 38.259 35.5821 38.05 35.1421 37.632C34.7021 37.192 34.2951 36.664 33.9211 36.048C33.5691 35.432 33.1731 34.816 32.7331 34.2C32.3151 33.562 31.7321 33.034 30.9841 32.616C30.2581 32.176 29.4001 31.956 28.4101 31.956C26.7161 31.956 25.2641 32.682 24.0541 34.134C22.8661 35.564 22.2721 37.423 22.2721 39.711C22.2721 42.901 23.1081 45.552 24.7801 47.664C26.4521 49.754 28.3771 50.799 30.5551 50.799C32.1831 50.799 33.5801 50.315 34.7461 49.347C35.9121 48.379 36.8031 47.257 37.4191 45.981C37.5731 45.761 37.7711 45.629 38.0131 45.585C38.2551 45.519 38.4641 45.574 38.6401 45.75C38.8161 45.904 38.8821 46.135 38.8381 46.443C38.5301 48.665 37.5621 50.535 35.9341 52.053C34.3281 53.571 32.1941 54.33 29.5321 54.33ZM55.0032 51.03C55.0472 51.514 55.1682 51.899 55.3662 52.185C55.5862 52.449 55.7952 52.614 55.9932 52.68C56.2132 52.746 56.4002 52.834 56.5542 52.944C56.7302 53.054 56.8182 53.197 56.8182 53.373C56.8182 53.923 55.9272 54.198 54.1452 54.198C53.2652 54.198 52.6162 54.066 52.1982 53.802C51.8022 53.516 51.5712 52.988 51.5052 52.218C50.6252 53.626 49.0962 54.33 46.9182 54.33C45.0702 54.33 43.5742 53.901 42.4302 53.043C41.3082 52.163 40.7472 50.931 40.7472 49.347C40.7252 47.785 41.2862 46.575 42.4302 45.717C43.5742 44.837 45.0152 44.397 46.7532 44.397C48.3372 44.397 49.6132 44.771 50.5812 45.519L50.5152 44.859C50.3172 42.835 49.9652 41.361 49.4592 40.437C48.9532 39.513 48.1502 39.051 47.0502 39.051C46.3682 39.051 45.7962 39.26 45.3342 39.678C44.8942 40.096 44.5862 40.558 44.4102 41.064C44.2562 41.548 44.0252 41.999 43.7172 42.417C43.4092 42.835 43.0242 43.044 42.5622 43.044C42.0782 43.044 41.6822 42.912 41.3742 42.648C41.0882 42.362 40.9452 41.988 40.9452 41.526C40.9452 40.47 41.5172 39.59 42.6612 38.886C43.8272 38.182 45.2902 37.83 47.0502 37.83C49.1182 37.83 50.7902 38.446 52.0662 39.678C53.3422 40.888 54.1012 42.56 54.3432 44.694L55.0032 51.03ZM48.0072 53.076C48.9092 53.076 49.6352 52.746 50.1852 52.086C50.7572 51.426 51.0212 50.645 50.9772 49.743L50.8782 48.72C50.8122 47.774 50.4932 47.026 49.9212 46.476C49.3492 45.926 48.6232 45.651 47.7432 45.651C46.8192 45.651 46.0712 45.948 45.4992 46.542C44.9272 47.114 44.6412 47.895 44.6412 48.885C44.6412 50.051 44.9492 51.041 45.5652 51.855C46.2032 52.669 47.0172 53.076 48.0072 53.076ZM84.9502 51.228C84.9722 51.712 85.1702 52.152 85.5442 52.548C85.9402 52.944 86.1382 53.241 86.1382 53.439V53.571C86.1382 53.879 85.9072 54.033 85.4452 54.033H80.5942C80.1322 54.033 79.9012 53.879 79.9012 53.571V53.439C79.9012 53.241 80.0992 52.955 80.4952 52.581C80.8912 52.185 81.0782 51.745 81.0562 51.261L80.7262 45.024C80.6382 43.044 80.2972 41.614 79.7032 40.734C79.1312 39.854 78.3062 39.414 77.2282 39.414C76.3262 39.414 75.5562 39.788 74.9182 40.536C74.3022 41.262 73.9722 42.186 73.9282 43.308C74.0162 43.748 74.0602 44.276 74.0602 44.892V51.261C74.0602 51.745 74.2472 52.185 74.6212 52.581C75.0172 52.955 75.2152 53.241 75.2152 53.439V53.571C75.2152 53.879 74.9842 54.033 74.5222 54.033H69.7372C69.2532 54.033 69.0112 53.879 69.0112 53.571V53.439C69.0112 53.241 69.1982 52.955 69.5722 52.581C69.9682 52.185 70.1662 51.745 70.1662 51.261V44.661C70.1662 43.011 69.8362 41.724 69.1762 40.8C68.5382 39.876 67.7132 39.414 66.7012 39.414C65.7112 39.414 64.8972 39.788 64.2592 40.536C63.6212 41.262 63.2802 42.197 63.2362 43.341L63.2692 51.261C63.2692 51.745 63.4892 52.185 63.9292 52.581C64.3692 52.955 64.5892 53.241 64.5892 53.439V53.571C64.5892 53.879 64.3582 54.033 63.8962 54.033H58.7812C58.2972 54.033 58.0552 53.879 58.0552 53.571V53.439C58.0552 53.241 58.2752 52.955 58.7152 52.581C59.1552 52.185 59.3752 51.745 59.3752 51.261V42.417C59.3752 42.021 59.2542 41.691 59.0122 41.427C58.7702 41.163 58.5282 40.943 58.2862 40.767C58.0442 40.591 57.9232 40.404 57.9232 40.206V40.107C57.9232 39.887 58.1212 39.689 58.5172 39.513L61.8832 37.962C62.2352 37.808 62.4992 37.797 62.6752 37.929C62.8512 38.039 62.9392 38.248 62.9392 38.556V40.503C63.4232 39.689 64.0722 39.04 64.8862 38.556C65.7222 38.072 66.6462 37.83 67.6582 37.83C68.8682 37.83 69.9572 38.116 70.9252 38.688C71.9152 39.26 72.6852 40.063 73.2352 41.097C73.6532 40.063 74.3242 39.26 75.2482 38.688C76.1722 38.116 77.2172 37.83 78.3832 37.83C80.0992 37.83 81.5072 38.413 82.6072 39.579C83.7292 40.723 84.3782 42.571 84.5542 45.123L84.9502 51.228ZM97.2337 37.83C99.3237 37.83 101.117 38.567 102.613 40.041C104.131 41.493 104.89 43.418 104.89 45.816C104.89 48.28 104.142 50.315 102.646 51.921C101.172 53.527 99.3787 54.33 97.2667 54.33C95.4847 54.33 94.0327 53.747 92.9107 52.581V58.554C92.9107 59.038 93.1307 59.467 93.5707 59.841C94.0327 60.237 94.2637 60.534 94.2637 60.732V60.831C94.2637 61.161 94.0217 61.326 93.5377 61.326H88.5217C88.0377 61.326 87.7957 61.161 87.7957 60.831V60.732C87.7957 60.534 88.0047 60.237 88.4227 59.841C88.8407 59.467 89.0497 59.038 89.0497 58.554V42.384C89.0497 41.922 88.8077 41.515 88.3237 41.163C87.8617 40.811 87.6307 40.525 87.6307 40.305V40.173C87.6307 39.887 87.8287 39.656 88.2247 39.48L91.2607 37.995C91.9867 37.621 92.3497 37.797 92.3497 38.523L92.3167 40.338C92.7787 39.546 93.4387 38.93 94.2967 38.49C95.1547 38.05 96.1337 37.83 97.2337 37.83ZM96.8047 53.076C98.1247 53.076 99.1477 52.548 99.8737 51.492C100.622 50.436 100.996 48.951 100.996 47.037C100.996 44.661 100.556 42.747 99.6757 41.295C98.8177 39.821 97.6847 39.084 96.2767 39.084C95.4407 39.084 94.6927 39.392 94.0327 40.008C93.3947 40.602 93.0207 41.361 92.9107 42.285V48.39C92.9107 49.6 93.3067 50.689 94.0987 51.657C94.8907 52.603 95.7927 53.076 96.8047 53.076Z" fill="white"/>
</svg>
