<svg width="28" height="25" viewBox="0 0 28 25" fill="none" xmlns="http://www.w3.org/2000/svg">
<path d="M26.9131 0.039999C27.5371 0.039999 27.8491 0.282666 27.8491 0.767999V0.923998C27.8491 1.27067 27.4157 1.77333 26.5491 2.432C25.7171 3.056 25.1797 3.69733 24.9371 4.356L17.1891 23.856C16.9464 24.6187 16.4437 25 15.6811 25H13.4971C12.8037 25 12.2837 24.6187 11.9371 23.856L2.68106 4.356C2.40373 3.76667 1.93573 3.14266 1.27706 2.484C0.618396 1.82533 0.289062 1.30533 0.289062 0.923998V0.767999C0.289062 0.282666 0.601063 0.039999 1.22506 0.039999H9.90906C10.4984 0.039999 10.7931 0.299999 10.7931 0.819998V0.975999C10.7931 1.21867 10.6197 1.51333 10.2731 1.86C9.96106 2.20667 9.70106 2.55333 9.49306 2.9C9.31973 3.212 9.33706 3.732 9.54506 4.46L15.9411 20.632L22.0251 5.188C22.3024 4.148 22.3024 3.43733 22.0251 3.056C21.7477 2.64 21.3664 2.25867 20.8811 1.912C20.4304 1.53067 20.2051 1.21867 20.2051 0.975999V0.819998C20.2051 0.299999 20.5171 0.039999 21.1411 0.039999H26.9131Z" fill="white"/>
</svg>
