<?xml version="1.0" encoding="utf-8"?>
<svg width="55px" height="55px" viewBox="0 0 37 39" version="1.1" xmlns:xlink="http://www.w3.org/1999/xlink" xmlns="http://www.w3.org/2000/svg">
  <g id="Group-3">
    <path d="M18.5 37C28.7173 37 37 28.7173 37 18.5C37 8.28273 28.7173 0 18.5 0C8.28273 0 0 8.28273 0 18.5C0 28.7173 8.28273 37 18.5 37Z" transform="translate(0 2)" id="Oval" fill="#000000" fill-rule="evenodd" stroke="none" />
    <g id="v" fill="#FFFFFF" transform="translate(11 0)">
      <path d="M14.336 15.5Q14.84 15.5 14.84 15.892L14.84 15.976Q14.84 16.256 14.154 16.774Q13.468 17.292 13.272 17.824L9.1 28.324C8.96933 28.7347 8.69867 28.94 8.288 28.94L7.112 28.94C6.73867 28.94 6.45867 28.7347 6.272 28.324L1.288 17.824Q1.064 17.348 0.532 16.816Q0 16.284 0 15.976L0 15.892C0 15.6307 0.168 15.5 0.504 15.5L5.18 15.5Q5.656 15.5 5.656 15.92L5.656 16.004Q5.656 16.2 5.39 16.48Q5.124 16.76 4.97 17.026Q4.816 17.292 4.984 17.88L8.428 26.588L11.704 18.272Q11.928 17.432 11.704 17.11Q11.48 16.788 11.102 16.494Q10.724 16.2 10.724 16.004L10.724 15.92Q10.724 15.5 11.228 15.5L14.336 15.5Z" />
    </g>
  </g>
</svg>