<svg width="127" height="42" viewBox="0 0 127 42" fill="none" xmlns="http://www.w3.org/2000/svg">
<g clip-path="url(#clip0)">
<circle opacity="0.129329" cx="18.5" cy="20.5" r="18.5" fill="white"/>
<path d="M25.336 14.56C25.672 14.56 25.84 14.6907 25.84 14.952V15.036C25.84 15.2227 25.6067 15.4933 25.14 15.848C24.692 16.184 24.4027 16.5293 24.272 16.884L20.1 27.384C19.9693 27.7947 19.6987 28 19.288 28H18.112C17.7387 28 17.4587 27.7947 17.272 27.384L12.288 16.884C12.1387 16.5667 11.8867 16.2307 11.532 15.876C11.1773 15.5213 11 15.2413 11 15.036V14.952C11 14.6907 11.168 14.56 11.504 14.56H16.18C16.4973 14.56 16.656 14.7 16.656 14.98V15.064C16.656 15.1947 16.5627 15.3533 16.376 15.54C16.208 15.7267 16.068 15.9133 15.956 16.1C15.8627 16.268 15.872 16.548 15.984 16.94L19.428 25.648L22.704 17.332C22.8533 16.772 22.8533 16.3893 22.704 16.184C22.5547 15.96 22.3493 15.7547 22.088 15.568C21.8453 15.3627 21.724 15.1947 21.724 15.064V14.98C21.724 14.7 21.892 14.56 22.228 14.56H25.336Z" fill="white"/>
<path d="M58.7554 31.3C56.0754 31.3 53.7054 30.16 51.6454 27.88C49.6054 25.58 48.5854 22.99 48.5854 20.11C48.5854 16.99 49.5154 14.43 51.3754 12.43C53.2354 10.43 55.6254 9.43 58.5454 9.43C60.8054 9.43 62.7654 10.04 64.4254 11.26C66.0854 12.46 66.9154 13.72 66.9154 15.04C66.9154 15.54 66.7654 15.94 66.4654 16.24C66.1654 16.54 65.7454 16.69 65.2054 16.69C64.7054 16.69 64.2554 16.5 63.8554 16.12C63.4554 15.72 63.0854 15.24 62.7454 14.68C62.4254 14.12 62.0654 13.56 61.6654 13C61.2854 12.42 60.7554 11.94 60.0754 11.56C59.4154 11.16 58.6354 10.96 57.7354 10.96C56.1954 10.96 54.8754 11.62 53.7754 12.94C52.6954 14.24 52.1554 15.93 52.1554 18.01C52.1554 20.91 52.9154 23.32 54.4354 25.24C55.9554 27.14 57.7054 28.09 59.6854 28.09C61.1654 28.09 62.4354 27.65 63.4954 26.77C64.5554 25.89 65.3654 24.87 65.9254 23.71C66.0654 23.51 66.2454 23.39 66.4654 23.35C66.6854 23.29 66.8754 23.34 67.0354 23.5C67.1954 23.64 67.2554 23.85 67.2154 24.13C66.9354 26.15 66.0554 27.85 64.5754 29.23C63.1154 30.61 61.1754 31.3 58.7554 31.3ZM81.9109 28.3C81.9509 28.74 82.0609 29.09 82.2409 29.35C82.4409 29.59 82.6309 29.74 82.8109 29.8C83.0109 29.86 83.1809 29.94 83.3209 30.04C83.4809 30.14 83.5609 30.27 83.5609 30.43C83.5609 30.93 82.7509 31.18 81.1309 31.18C80.3309 31.18 79.7409 31.06 79.3609 30.82C79.0009 30.56 78.7909 30.08 78.7309 29.38C77.9309 30.66 76.5409 31.3 74.5609 31.3C72.8809 31.3 71.5209 30.91 70.4809 30.13C69.4609 29.33 68.9509 28.21 68.9509 26.77C68.9309 25.35 69.4409 24.25 70.4809 23.47C71.5209 22.67 72.8309 22.27 74.4109 22.27C75.8509 22.27 77.0109 22.61 77.8909 23.29L77.8309 22.69C77.6509 20.85 77.3309 19.51 76.8709 18.67C76.4109 17.83 75.6809 17.41 74.6809 17.41C74.0609 17.41 73.5409 17.6 73.1209 17.98C72.7209 18.36 72.4409 18.78 72.2809 19.24C72.1409 19.68 71.9309 20.09 71.6509 20.47C71.3709 20.85 71.0209 21.04 70.6009 21.04C70.1609 21.04 69.8009 20.92 69.5209 20.68C69.2609 20.42 69.1309 20.08 69.1309 19.66C69.1309 18.7 69.6509 17.9 70.6909 17.26C71.7509 16.62 73.0809 16.3 74.6809 16.3C76.5609 16.3 78.0809 16.86 79.2409 17.98C80.4009 19.08 81.0909 20.6 81.3109 22.54L81.9109 28.3ZM75.5509 30.16C76.3709 30.16 77.0309 29.86 77.5309 29.26C78.0509 28.66 78.2909 27.95 78.2509 27.13L78.1609 26.2C78.1009 25.34 77.8109 24.66 77.2909 24.16C76.7709 23.66 76.1109 23.41 75.3109 23.41C74.4709 23.41 73.7909 23.68 73.2709 24.22C72.7509 24.74 72.4909 25.45 72.4909 26.35C72.4909 27.41 72.7709 28.31 73.3309 29.05C73.9109 29.79 74.6509 30.16 75.5509 30.16ZM109.135 28.48C109.155 28.92 109.335 29.32 109.675 29.68C110.035 30.04 110.215 30.31 110.215 30.49V30.61C110.215 30.89 110.005 31.03 109.585 31.03H105.175C104.755 31.03 104.545 30.89 104.545 30.61V30.49C104.545 30.31 104.725 30.05 105.085 29.71C105.445 29.35 105.615 28.95 105.595 28.51L105.295 22.84C105.215 21.04 104.905 19.74 104.365 18.94C103.845 18.14 103.095 17.74 102.115 17.74C101.295 17.74 100.595 18.08 100.015 18.76C99.4555 19.42 99.1555 20.26 99.1155 21.28C99.1955 21.68 99.2355 22.16 99.2355 22.72V28.51C99.2355 28.95 99.4055 29.35 99.7455 29.71C100.105 30.05 100.285 30.31 100.285 30.49V30.61C100.285 30.89 100.075 31.03 99.6555 31.03H95.3055C94.8655 31.03 94.6455 30.89 94.6455 30.61V30.49C94.6455 30.31 94.8155 30.05 95.1555 29.71C95.5155 29.35 95.6955 28.95 95.6955 28.51V22.51C95.6955 21.01 95.3955 19.84 94.7955 19C94.2155 18.16 93.4655 17.74 92.5455 17.74C91.6455 17.74 90.9055 18.08 90.3255 18.76C89.7455 19.42 89.4355 20.27 89.3955 21.31L89.4255 28.51C89.4255 28.95 89.6255 29.35 90.0255 29.71C90.4255 30.05 90.6255 30.31 90.6255 30.49V30.61C90.6255 30.89 90.4155 31.03 89.9955 31.03H85.3455C84.9055 31.03 84.6855 30.89 84.6855 30.61V30.49C84.6855 30.31 84.8855 30.05 85.2855 29.71C85.6855 29.35 85.8855 28.95 85.8855 28.51V20.47C85.8855 20.11 85.7755 19.81 85.5555 19.57C85.3355 19.33 85.1155 19.13 84.8955 18.97C84.6755 18.81 84.5655 18.64 84.5655 18.46V18.37C84.5655 18.17 84.7455 17.99 85.1055 17.83L88.1655 16.42C88.4855 16.28 88.7255 16.27 88.8855 16.39C89.0455 16.49 89.1255 16.68 89.1255 16.96V18.73C89.5655 17.99 90.1555 17.4 90.8955 16.96C91.6555 16.52 92.4955 16.3 93.4155 16.3C94.5155 16.3 95.5055 16.56 96.3855 17.08C97.2855 17.6 97.9855 18.33 98.4855 19.27C98.8655 18.33 99.4755 17.6 100.315 17.08C101.155 16.56 102.105 16.3 103.165 16.3C104.725 16.3 106.005 16.83 107.005 17.89C108.025 18.93 108.615 20.61 108.775 22.93L109.135 28.48ZM120.302 16.3C122.202 16.3 123.832 16.97 125.192 18.31C126.572 19.63 127.262 21.38 127.262 23.56C127.262 25.8 126.582 27.65 125.222 29.11C123.882 30.57 122.252 31.3 120.332 31.3C118.712 31.3 117.392 30.77 116.372 29.71V35.14C116.372 35.58 116.572 35.97 116.972 36.31C117.392 36.67 117.602 36.94 117.602 37.12V37.21C117.602 37.51 117.382 37.66 116.942 37.66H112.382C111.942 37.66 111.722 37.51 111.722 37.21V37.12C111.722 36.94 111.912 36.67 112.292 36.31C112.672 35.97 112.862 35.58 112.862 35.14V20.44C112.862 20.02 112.642 19.65 112.202 19.33C111.782 19.01 111.572 18.75 111.572 18.55V18.43C111.572 18.17 111.752 17.96 112.112 17.8L114.872 16.45C115.532 16.11 115.862 16.27 115.862 16.93L115.832 18.58C116.252 17.86 116.852 17.3 117.632 16.9C118.412 16.5 119.302 16.3 120.302 16.3ZM119.912 30.16C121.112 30.16 122.042 29.68 122.702 28.72C123.382 27.76 123.722 26.41 123.722 24.67C123.722 22.51 123.322 20.77 122.522 19.45C121.742 18.11 120.712 17.44 119.432 17.44C118.672 17.44 117.992 17.72 117.392 18.28C116.812 18.82 116.472 19.51 116.372 20.35V25.9C116.372 27 116.732 27.99 117.452 28.87C118.172 29.73 118.992 30.16 119.912 30.16Z" fill="white"/>
</g>
<defs>
<clipPath id="clip0">
<rect width="127" height="42" fill="white"/>
</clipPath>
</defs>
</svg>
