<svg width="261" height="360" viewBox="0 0 261 360" fill="none" xmlns="http://www.w3.org/2000/svg">
<path d="M2 152.344C47.8125 103.008 96.5997 54.9573 148.444 11.8998C149.768 10.8006 161.691 -2.62969 159.111 3.6776C149.33 27.5878 141.658 52.2019 132.444 76.3443C117.606 115.227 100.545 153.192 85.5556 192.011C84.7321 194.144 76.4303 210.136 78.5556 213.678C79.8704 215.869 93.0091 206.294 93.1111 206.233C135.532 180.996 180.168 160.027 223.778 137.011C235.408 130.873 246.591 124.439 257.556 117.233C258.689 116.488 259.766 116.344 258 116.344" stroke="black" stroke-width="3" stroke-linecap="round"/>
<path d="M259 117.344C218.851 174.526 187.619 238.118 149.444 296.678C136.852 315.993 118.149 333.005 107.444 353.344C101.91 363.86 115.75 353.273 121.555 351.233C159.6 337.866 199.532 329.238 239 321.344" stroke="black" stroke-width="3" stroke-linecap="round"/>
</svg>
