<svg width="23" height="24" viewBox="0 0 23 24" fill="none" xmlns="http://www.w3.org/2000/svg">
<path fill-rule="evenodd" clip-rule="evenodd" d="M10.5163 23.1487H10.4463C10.0463 23.1207 9.70162 22.8563 9.57088 22.4772C9.44013 22.098 9.54857 21.6774 9.84634 21.4087L20.4763 10.7787C20.6817 10.5732 20.7876 10.2885 20.7663 9.99874L20.1963 2.57874L12.7763 2.00874C12.4866 1.98749 12.2019 2.09334 11.9963 2.29874L2.74634 11.5487C2.35862 11.9388 2.35862 12.5687 2.74634 12.9587L8.33634 18.5487C8.67612 18.9455 8.65328 19.5369 8.28391 19.9063C7.91454 20.2757 7.3231 20.2985 6.92634 19.9587L1.33634 14.3687C0.166531 13.1975 0.166531 11.3 1.33634 10.1287L10.5863 0.878735C11.2053 0.259801 12.0636 -0.0579715 12.9363 0.00873538L21.2163 0.648735C21.7079 0.686709 22.0984 1.07722 22.1363 1.56874L22.7763 9.84874C22.8431 10.7215 22.5253 11.5798 21.9063 12.1987L11.2463 22.8587C11.0528 23.0509 10.789 23.1557 10.5163 23.1487ZM17.5863 9.41874C18.5978 8.40603 18.753 6.81984 17.957 5.63031C17.161 4.44078 15.6355 3.97923 14.3136 4.52796C12.9916 5.07669 12.2414 6.48284 12.5218 7.88641C12.8022 9.28997 14.035 10.3 15.4663 10.2987C16.2721 10.3061 17.0469 9.98891 17.6163 9.41874H17.5863ZM16.1763 6.58874C16.5149 6.92459 16.5693 7.45281 16.3061 7.85054C16.0429 8.24827 15.5355 8.40481 15.094 8.22447C14.6525 8.04414 14.3998 7.57713 14.4903 7.10888C14.5808 6.64064 14.9894 6.30149 15.4663 6.29874C15.7321 6.2972 15.9876 6.40155 16.1763 6.58874Z" fill="black"/>
</svg>
